<?xml version="1.0" encoding="UTF-8" standalone="no"?>
<!DOCTYPE svg PUBLIC "-//W3C//DTD SVG 20010904//EN"
              "http://www.w3.org/TR/2001/REC-SVG-20010904/DTD/svg10.dtd">

<svg xmlns="http://www.w3.org/2000/svg"
     width="2.808in" height="1.135in"
     viewBox="0 0 202.148 81.975">
  <path fill="white" stroke="none"
        d="M112.642,48.505h0.018l-0.001-7.499l-0.016-30.411l-14.989-0.001l0,12.312L74.746,0v21.197L87.048,33.5l-12.287-0.001v0.009
        h-0.019v0.008l0.019,37.898l14.989,0.002V59.108l22.867,22.867V60.777l-12.265-12.265h12.291L112.642,48.505z M87.869,43.508
        l19.755,19.756v6.234L84.756,46.631v19.791h-4.409l-0.017-22.578v-4.759l4.426-0.001v0.017l22.907,0.003l0.002,4.404H87.869z" />
  <path fill="white" stroke="none"
        d="M23.211,49.232c-0.742,6.359-3.392,13.195-11.129,13.195C2.226,62.428,0,52.253,0,42.873s2.226-19.555,12.083-19.555
        c8.002,0,10.281,6.836,10.546,11.447h-1.06c-0.318-5.829-3.179-10.493-9.433-10.493c-8.797,0-11.076,9.009-11.076,18.601
        s2.279,18.601,11.076,18.601c7.949,0,9.592-8.32,10.016-12.242H23.211z" />
  <path fill="white" stroke="none"
        d="M27.56,23.955h1.06v36.883h16.163v0.954H27.56V23.955z" />
  <path fill="white" stroke="none"
        d="M49.131,23.955h10.387c5.14,0,9.062,3.709,9.062,10.069c0,7.578-5.353,10.387-10.334,10.387H50.19v17.382h-1.06V23.955z
         M50.19,43.456h8.161c4.028,0,9.168-2.12,9.168-9.486c0-5.193-2.809-9.062-8.32-9.062H50.19V43.456z" />
  <path fill="white" stroke="none"
        d="M121.115,23.106h12.241c5.617,0,10.175,2.491,10.175,9.168c0,4.61-1.802,7.419-5.564,8.585v0.106
        c4.134,0.742,6.783,3.232,6.783,9.645c0,6.307-4.558,10.334-11.658,10.334h-11.977V23.106z M131.925,39.058
        c3.656,0,5.564-2.438,5.564-5.988c0-4.504-2.703-5.405-6.095-5.405h-4.239v11.394H131.925z M133.144,56.387
        c3.604,0,5.564-2.332,5.564-6.677c0-4.081-2.438-6.412-5.936-6.412h-5.617v13.089H133.144z" />
  <path fill="white" stroke="none"
        d="M149.575,23.106h13.354c5.299,0,9.592,2.65,9.592,9.751c0,4.876-2.173,8.639-6.307,9.274v0.105
        c3.763,0.371,5.724,2.438,5.936,7.737c0.053,2.438,0.105,5.405,0.212,7.685c0.105,1.854,1.007,2.755,1.802,3.285h-6.836
        c-0.583-0.688-0.849-1.854-1.007-3.339c-0.212-2.278-0.159-4.398-0.266-7.154c-0.105-4.133-1.378-5.935-5.511-5.935h-4.929v16.428
        h-6.041V23.106z M160.438,39.959c3.869,0,6.041-2.332,6.041-6.147c0-4.027-1.748-6.147-5.723-6.147h-5.141v12.295H160.438z" />     
  <path fill="white" stroke="none"
        d="M178.036,23.106h10.758c11.87,0,13.354,7.737,13.354,18.919s-1.484,18.919-13.354,18.919h-10.758V23.106z M184.077,56.387
        h4.981c4.981,0,7.048-3.285,7.048-14.361c0-10.651-1.802-14.361-7.048-14.361h-4.981V56.387z" />
</svg>
